<svg xmlns="http://www.w3.org/2000/svg" width="25" height="25" viewBox="0 0 34.198 34.2"><defs><style>.a{fill:#d6c315;}.b{fill:#fafafa;}</style></defs><g transform="translate(-0.002 -0.001)"><path class="a" d="M32.554,17.935a2.01,2.01,0,0,1,0-1.67l1.274-2.8A4.155,4.155,0,0,0,31.5,7.848L28.619,6.765a2.017,2.017,0,0,1-1.181-1.183L26.355,2.7A4.154,4.154,0,0,0,20.743.373L17.937,1.648a2.021,2.021,0,0,1-1.67,0L13.459.373A4.154,4.154,0,0,0,7.847,2.7L6.764,5.583A2.014,2.014,0,0,1,5.583,6.765L2.7,7.848A4.155,4.155,0,0,0,.374,13.46l1.275,2.806a2.024,2.024,0,0,1,0,1.672l-1.275,2.8A4.155,4.155,0,0,0,2.7,26.354l2.884,1.083A2.017,2.017,0,0,1,6.764,28.62L7.847,31.5a4.154,4.154,0,0,0,5.612,2.324l2.806-1.275a2.021,2.021,0,0,1,1.67,0l2.806,1.275a4.155,4.155,0,0,0,5.612-2.323l1.083-2.886a2.018,2.018,0,0,1,1.181-1.181L31.5,26.355a4.155,4.155,0,0,0,2.324-5.612Z" transform="translate(0 0)"/><path class="b" d="M24.648,13.6l-4.077,4.178.965,5.913A1.069,1.069,0,0,1,19.962,24.8l-4.986-2.756L9.989,24.8A1.07,1.07,0,0,1,8.416,23.7l.965-5.913L5.3,13.6a1.069,1.069,0,0,1,.6-1.8l5.591-.855L14.01,5.6a1.113,1.113,0,0,1,1.934,0l2.511,5.347,5.591.855a1.067,1.067,0,0,1,.6,1.8Z" transform="translate(2.124 2.141)"/></g></svg>