<svg xmlns="http://www.w3.org/2000/svg" width="100%" height="100%" viewBox="0 0 643.919 646.443">
    <defs>
        <style>
            .a {
                fill: #91561a;
            }

            .a,
            .b,
            .c,
            .d,
            .e,
            .f,
            .g,
            .h,
            .i,
            .j,
            .k {
                fill-rule: evenodd;
            }

            .b {
                fill: #b5722f;
            }

            .c {
                fill: #ffdda6;
            }

            .d {
                fill: #64b0d9;
            }

            .e {
                fill: #eda93b;
            }

            .f {
                fill: #fcc368;
            }

            .g {
                fill: #4a83c9;
            }

            .h {
                fill: gray;
            }

            .i,
            .l {
                fill: #666;
            }

            .j {
                fill: #e6e6e6;
            }

            .k {
                fill: #c2c7cc;
            }
        </style>
    </defs>
    <g transform="translate(-0.5 0)">
        <g transform="translate(0.5 0)">
            <path class="a"
                d="M322.434,471.506H27.271c-16.443,0-26.248-9.134-26.771-20.838V507.82A20.344,20.344,0,0,0,20.746,528.1h603.3a20.344,20.344,0,0,0,20.246-20.285V451.97c-1.154,11.072-10.85,19.536-26.657,19.536Zm0,0"
                transform="translate(-0.5 118.338)" />
            <path class="b"
                d="M25.18,421.182,6.315,448.1A30.018,30.018,0,0,0,.5,463.834v1.978c.523,11.7,10.328,20.838,26.771,20.838H617.637c15.807,0,25.5-8.463,26.657-19.536.636-5.889-1.154-12.527-5.741-19.013l-18.865-26.919c-8.537-12.192-18.978-26.993-33.592-28.112-.557-.039-9.356-.074-9.953-.074-17.074,14.766-52.308,19.575-91.828,19.575H155.858c-39.485,0-74.754-4.809-91.794-19.575-.705,0-4.917.039-5.588.074-14.431,1.307-24.793,15.994-33.3,28.112Zm0,0"
                transform="translate(-0.5 103.195)" />
            <path class="c"
                d="M50.348,356.744c-12.488,23.6-9.77,39.781,2.757,50.632,17.04,14.766,52.308,19.575,91.794,19.575h10.549l39.48-37.133-46.938-36.689c-35.826-28-72.885-10.48-97.643,3.615Zm0,0"
                transform="translate(10.459 88.816)" />
            <path class="c"
                d="M387.36,351.607l-29.266,36.8L379.9,425.428h10.515c39.515,0,74.749-4.809,91.823-19.575C494.733,395,497.49,378.821,485,355.222c-24.793-14.1-53.5-14.391-97.643-3.615Zm0,0"
                transform="translate(93.398 90.337)" />
            <path class="d"
                d="M173.779,239.813c-46.267,2.461-63.751,28.038-86.009,70.093L48.66,383.8c24.758-14.1,53.463-14.391,97.643-3.615H468.612c44.141-10.776,72.85-10.48,97.643,3.615l-39.145-73.9c-22.258-42.055-39.707-67.593-85.974-70.093-10.441-.523-19.274-1.825-27.22-4.621l-213.441.148c-7.832,2.722-16.478,3.951-26.7,4.473Zm0,0"
                transform="translate(12.146 61.758)" />
            <path class="e"
                d="M347.118,107.977c-31.17,23.451-20.581,42.731-1.864,53.467,14.8.222,31.318-15.028,31.318-29.977V119.8a11.849,11.849,0,0,0-11.822-11.822Zm0,0"
                transform="translate(85.322 28.353)" />
            <path class="e"
                d="M134.559,131.468c0,14.949,16.517,30.2,31.283,29.977l23.708-29.192-25.538-24.275H146.381A11.849,11.849,0,0,0,134.559,119.8Zm0,0"
                transform="translate(34.702 28.353)" />
            <path class="f"
                d="M379.022,384.911l-3.655,36.206h10.515c39.515,0,74.749-4.814,91.823-19.575,10.737-9.321,14.283-22.559,7.161-41.088a36.232,36.232,0,0,1-4.7,4.888c-17.074,14.8-52.308,19.57-91.823,19.57Zm0,0"
                transform="translate(97.934 94.649)" />
            <path class="f"
                d="M45.73,360.9c-6.86,18.229-3.28,31.318,7.383,40.526C70.148,416.185,105.422,421,144.9,421h10.549l-3.729-36.911H141.173c-39.48,0-74.749-4.809-91.789-19.575A37.257,37.257,0,0,1,45.73,360.9Zm0,0"
                transform="translate(10.455 94.766)" />
            <path class="g"
                d="M320.473,258.233c7.156,2.16,15.062,3.206,24.2,3.689,46.267,2.461,63.716,28,86.009,70.054l21.513,40.639c16.3.375,30.016,3.955,42.691,11.186l-39.15-73.9c-22.258-42.055-39.7-67.593-85.974-70.093-10.436-.518-19.274-1.825-27.215-4.621-5.179,8.947-12.789,16.626-22.071,23.042Zm0,0"
                transform="translate(83.52 61.758)" />
            <path class="f"
                d="M171.215,253.581c39.929,60.471,177.274,55.1,211.128-3.393-10.475-3.729-19.462-10.066-28.857-20.916-3.319-3.763-12.414-12.715-12.937-13.385l-59.613-37.8L207.6,219.58c-3.023,3.053-7.27,7.344-9.321,9.691-9.543,11-18.717,17.41-29.38,21.064.631,1.12,1.6,2.16,2.313,3.245Zm0,0"
                transform="translate(43.72 46.762)" />
            <path class="c"
                d="M159.717,173c5.849,27.18,25.163,56.259,50.775,76.544a134.945,134.945,0,0,0,29.829,18.007c1.751.745,3.541,1.455,5.292,2.126,21.252,7.866,37.212,7.827,58.385-.074a132.452,132.452,0,0,0,39.446-23.752c23.412-20.019,40.827-47.273,46.306-72.85a76.855,76.855,0,0,0,1.864-16.443V93.059L283.829,63.98,157.887,93.059v63.494A79.032,79.032,0,0,0,159.717,173Zm0,0"
                transform="translate(40.827 16.801)" />
            <path class="f"
                d="M332.795,97.823v63.494a79.018,79.018,0,0,1-1.825,16.443c-5.479,25.577-22.929,52.831-46.306,72.85a141.406,141.406,0,0,1-27.027,18.268,93.451,93.451,0,0,0,20.167-5.331,112.043,112.043,0,0,0,11.112-4.809A138.136,138.136,0,0,0,317.249,239.8c23.417-20.024,40.827-47.278,46.306-72.85a76.857,76.857,0,0,0,1.864-16.443V87.012c-11.9,4.513-22.707,8.054-32.625,10.811Zm0,0"
                transform="translate(67.02 22.848)" />
            <path class="h"
                d="M157.887,109.86c102.042-27.515,93.766,53.2,233.726,0C456.3,62.809,392.88-28.275,323.645,8.562,289.457,26.756,246.771.247,210.979,15.98c-35.081,15.437-53.093,48.4-53.093,93.88Zm0,0"
                transform="translate(40.827 0)" />
            <path class="i"
                d="M284.922,11.023c56.7-4.848,96.745,68.9,40.708,109.648,9.918-2.757,20.729-6.3,32.625-10.811,64.683-47.051,1.268-138.134-67.967-101.3a58.2,58.2,0,0,1-5.366,2.461Zm0,0"
                transform="translate(74.185 0)" />
            <path class="e"
                d="M326.82,247.731c8.049,8.315,15.994,13.459,25.015,16.665,1.006.335,1.978.671,3.018.972,9.287-6.412,16.892-14.1,22.071-23.042l-.557-.222c-10.214-3.729-19.087-10.032-28.334-20.655-3.285-3.8-12.379-12.754-12.9-13.425a132.492,132.492,0,0,1-39.441,23.752c-21.178,7.9-37.138,7.94-58.385.074-1.756-.671-3.541-1.381-5.3-2.126a134.917,134.917,0,0,1-29.824-18.007c-3.023,3.053-7.27,7.344-9.321,9.691-1.12,1.307-2.2,2.5-3.319,3.655q4.809,4.306,9.953,8.241a140.862,140.862,0,0,0,31.131,18.007c1.83.745,3.655,1.455,5.519,2.086,22.11,7.906,38.775,7.871,60.88-.035a123.251,123.251,0,0,0,18.381-8.315c2.165-1.194,5.484-3.433,11.413,2.683Zm0,0"
                transform="translate(49.14 54.624)" />
            <path class="a"
                d="M175.5,443.475l-16.034-30.9H148.918c-39.485,0-74.754-4.814-91.794-19.575-.705,0-4.917.034-5.588.074-7.645.71-14.13,5.144-19.836,10.964l-.335.335c-1.529,1.637-3.018,3.314-4.439,5.1,12.192,32.511,115.689,34,148.576,34Zm0,0"
                transform="translate(6.439 103.195)" />
            <path class="a"
                d="M362.668,443.475l16.034-30.9h10.515c39.515,0,74.749-4.774,91.823-19.575h.488c1.973,0,8.947.034,9.469.074,8.162.6,15.023,5.519,20.99,11.856l-.079-.039a.635.635,0,0,1,.187.148l.187.187c.449.483-.222,2.461-1.046,4.251-12.226,32.511-115.724,34-148.571,34Zm0,0"
                transform="translate(94.599 103.195)" />
            <path class="j"
                d="M127.186,364.624l7.457,73.822L136.32,455c.784,7.827,6.451,14.317,14.317,14.317H426.01c7.9,0,13.568-6.49,14.352-14.317l1.677-16.552,7.457-73.822,5.632-55.815c.784-7.866-6.451-14.352-14.357-14.352h-304.9c-7.866,0-15.136,6.486-14.352,14.352Zm0,0"
                transform="translate(31.263 77.32)" />
            <path class="f"
                d="M230,369.077c0,14.278,13.346,25.873,29.829,25.873s29.863-11.6,29.863-25.873-13.385-25.839-29.863-25.839S230,354.8,230,369.077Zm0,0"
                transform="translate(59.762 90.129)" />
            <path class="k"
                d="M131.9,408.5l1.677,16.552a18.258,18.258,0,0,0,.932,4.251c2.052,5.815,7.008,10.066,13.385,10.066H423.268c6.412,0,11.334-4.251,13.385-10.066a18.059,18.059,0,0,0,.967-4.251L439.3,408.5Zm0,0"
                transform="translate(34.004 107.266)" />
        </g>
        <path class="l"
            d="M216.892,160.885a9.828,9.828,0,0,1-9.829-9.829v-11a9.832,9.832,0,1,1,19.664,0v11A9.835,9.835,0,0,1,216.892,160.885Zm0,0"
            transform="translate(54.24 34.194)" />
        <path class="l"
            d="M289.118,160.885a9.828,9.828,0,0,1-9.829-9.829v-11a9.832,9.832,0,1,1,19.664,0v11A9.832,9.832,0,0,1,289.118,160.885Zm0,0"
            transform="translate(73.205 34.194)" />
    </g>
</svg>