<svg xmlns="http://www.w3.org/2000/svg" width="40" height="40" viewBox="0 0 66.8 66.8"><defs><style>.a{fill:#ffeb3b;}.b{fill:#ebda3e;}.c{fill:#fff;}</style></defs><g transform="translate(0)"><circle class="a" cx="33.4" cy="33.4" r="33.4" transform="translate(0 0)"/><path class="b" d="M188.8,180.448l17.174,17.174a33.378,33.378,0,0,0,24.76-32.241v-.948L217.248,152Z" transform="translate(-163.934 -131.981)"/><g transform="translate(11.221 16.489)"><path class="c" d="M108.222,214.193a3.945,3.945,0,0,1,0,5.479l-3.056,3.056a3.945,3.945,0,0,1-5.479,0L86.306,209.241a3.945,3.945,0,0,1,0-5.479l3.056-3.056a3.945,3.945,0,0,1,5.479,0Z" transform="translate(-85.2 -189.801)"/><path class="c" d="M188.686,126.306a3.945,3.945,0,0,1,5.479,0l3.056,3.056a3.945,3.945,0,0,1,0,5.479l-23.18,23.074a3.945,3.945,0,0,1-5.479,0l-3.056-3.056a3.945,3.945,0,0,1,0-5.479Z" transform="translate(-153.969 -125.2)"/></g></g></svg>