<svg xmlns="http://www.w3.org/2000/svg" width="25.652" height="22.643" viewBox="0 0 25.652 22.643"><defs><style>.a{opacity:0.65;}.b{fill:#16224f;}</style></defs><g class="a"><path class="b" d="M557.515,79.839h8a1.316,1.316,0,0,0,1.315-1.315v-8a1.316,1.316,0,0,0-1.315-1.315h-3.828a8.7,8.7,0,0,1,1.458-5.03,7.924,7.924,0,0,1,3.3-2.468,1.314,1.314,0,0,0,.652-1.765l-.947-2a1.315,1.315,0,0,0-1.713-.642,14.625,14.625,0,0,0-4.412,2.862,11.106,11.106,0,0,0-3.007,4.786,25.925,25.925,0,0,0-.813,7.282v6.288A1.316,1.316,0,0,0,557.515,79.839Z" transform="translate(-556.2 -57.197)"/><path class="b" d="M8.228,57.307a14.871,14.871,0,0,0-4.391,2.857A11.047,11.047,0,0,0,.812,64.931,25.893,25.893,0,0,0,0,72.232V78.52a1.316,1.316,0,0,0,1.315,1.315h8a1.316,1.316,0,0,0,1.315-1.315v-8a1.316,1.316,0,0,0-1.315-1.315H5.484a8.7,8.7,0,0,1,1.457-5.03,7.925,7.925,0,0,1,3.3-2.468,1.314,1.314,0,0,0,.652-1.765l-.944-1.994A1.319,1.319,0,0,0,8.228,57.307Z" transform="translate(14.634 -57.193)"/></g></svg>