<svg xmlns="http://www.w3.org/2000/svg" xmlns:xlink="http://www.w3.org/1999/xlink" width="100%" height="100%" viewBox="0 0 1920 1080">
  <defs>
    <clipPath id="clip-Web_1920_3">
      <rect width="1920" height="1080"/>
    </clipPath>
  </defs>
  <g id="Web_1920_3" data-name="Web 1920 – 3" clip-path="url(#clip-Web_1920_3)">
    <rect width="1920" height="1080" fill="#142048"/>
    <path id="Path_284" data-name="Path 284" d="M-110.1,551.382c1.972,24.826,4.572,49.438,7.769,73.673,53.336,408.4,183.821,824,403.378,1015.62,187.645,163.95,457.162,155.245,652.008,4.46,205.065-158.63,322.165-516.677,292.524-908.953C1219.258,387.7,1070.516,171.519,885.262,223.751c-56.174,16.121-154.568,71.47-210.085,52.877-137.3-45.891-181.7-321.882-311.438-418.339C216.222-251.388,29.891-142.894-58.434,89.356-110.006,224.933-122.765,392.268-110.1,551.382Z" transform="translate(13.337 13.063)" fill="#fff"/>
    <path id="Path_285" data-name="Path 285" d="M-110.584,415.617c1.76-12.322,4.081-24.536,6.934-36.565C-56.044,176.359,60.424-29.907,256.4-125.013c167.488-81.37,408.052-77.05,581.968-2.214C1021.4-48.5,1125.921,129.207,1099.464,323.9c-23.5,172.956-156.26,280.249-321.615,254.326-50.14-8-137.964-35.471-187.517-26.243C467.783,574.757,428.152,711.735,312.35,759.607c-131.67,54.434-297.985.587-376.822-114.681C-110.5,577.637-121.892,494.587-110.584,415.617Z" transform="matrix(-0.616, -0.788, 0.788, -0.616, 485.223, 1165.504)" fill="#4a83c9" opacity="0.31"/>
    <path id="Path_286" data-name="Path 286" d="M-111.243,318.128c1.474-10.321,3.418-20.552,5.808-30.627C-65.56,117.725,31.995-55.045,196.141-134.706,336.43-202.862,537.928-199.243,683.6-136.56,836.913-70.615,924.459,78.229,902.3,241.3,882.618,386.172,771.415,476.042,632.913,454.329c-42-6.7-115.56-29.711-157.065-21.982C373.2,451.424,340,566.158,243.008,606.256,132.721,651.85-6.585,606.747-72.619,510.2-111.176,453.837-120.715,384.274-111.243,318.128Z" transform="matrix(-0.616, -0.788, 0.788, -0.616, 486.113, 1039.287)" fill="#fff" opacity="0.31"/>
  </g>
</svg>
