<svg xmlns="http://www.w3.org/2000/svg" width="100%" height="100%" viewBox="0 0 610 610"><defs><style>.a{fill:#66baed;}.b{fill:#3d4159;}.c{fill:#f2f0ec;}.d{fill:#713775;}.e{fill:#f74f4f;}.f{fill:#3fb777;}.g{fill:#dde8ed;}.h{fill:#bfd5de;}.i{fill:#eab599;}.j{fill:#f6caae;}.k{fill:#fff;}.l{fill:#e8c934;}.m{fill:#ffe152;}</style></defs><path class="a" d="M610,305c0,168.449-136.551,305-305,305S0,473.449,0,305,136.551,0,305,0,610,136.551,610,305Zm0,0"/><path class="b" d="M160.466,0H548.391A38.21,38.21,0,0,1,586.6,38.209V404.068a38.206,38.206,0,0,1-38.209,38.2H160.466a38.2,38.2,0,0,1-38.209-38.2V38.209A38.207,38.207,0,0,1,160.466,0Zm0,0" transform="translate(23.401)"/><path class="c" d="M156.466,413.373a13.318,13.318,0,0,1-13.31-13.306V34.208a13.325,13.325,0,0,1,13.31-13.31H544.391a13.325,13.325,0,0,1,13.31,13.31V400.068a13.321,13.321,0,0,1-13.31,13.306Zm0,0" transform="translate(27.401 4)"/><path class="d" d="M183.52,281.219H526.784v35.025H183.52Zm0,0" transform="translate(35.127 53.827)"/><path class="d" d="M200.18,46.023h39.7V295.879h-39.7Zm0,0" transform="translate(38.316 8.809)"/><path class="e" d="M274,82.414h39.7v206.5H274Zm0,0" transform="translate(52.446 15.775)"/><path class="a" d="M347.832,46.023h39.7V295.879h-39.7Zm0,0" transform="translate(66.577 8.809)"/><path class="f" d="M421.656,124.422h39.7V280.873h-39.7Zm0,0" transform="translate(80.708 23.815)"/><path class="g" d="M385.925,426.4v66.626a300.3,300.3,0,0,1-37.231,16.633q-12.852,4.74-26.243,8.326V426.4Zm0,0" transform="translate(61.719 81.616)"/><path class="h" d="M348.693,426.4v83.259q-12.852,4.74-26.243,8.326V426.4Zm0,0" transform="translate(61.719 81.616)"/><path class="i" d="M444.959,413.948a18.354,18.354,0,0,1-18.35,18.35H322.449v-18.35A18.348,18.348,0,0,1,340.8,395.6h85.809a18.25,18.25,0,0,1,12.97,5.375,18.5,18.5,0,0,1,4.072,6.176,18.158,18.158,0,0,1,1.308,6.8Zm0,0" transform="translate(61.719 75.72)"/><path class="j" d="M443.652,407.149A18.352,18.352,0,0,1,426.609,418.7H322.45v-4.756A18.348,18.348,0,0,1,340.8,395.6h85.809a18.25,18.25,0,0,1,12.97,5.375,18.5,18.5,0,0,1,4.072,6.176Zm0,0" transform="translate(61.719 75.72)"/><path class="h" d="M354.269,467.786V502.63a302.741,302.741,0,0,1-105.481,36.25A304.933,304.933,0,0,1,59.364,432.454a113.422,113.422,0,0,1,98.459-77.632q4.593-.37,9.275-.372h73.811a113.183,113.183,0,0,1,113.36,113.337Zm0,0" transform="translate(11.363 67.844)"/><path class="g" d="M345.871,467.786v68.343a306.787,306.787,0,0,1-60.627,6.027,303.654,303.654,0,0,1-182.006-60.231V467.786A113.35,113.35,0,0,1,216.6,354.449h15.912a113.341,113.341,0,0,1,113.36,113.337Zm0,0" transform="translate(19.76 67.844)"/><path class="e" d="M216.081,388.773l-30.427,48.8-30.423-48.8" transform="translate(29.712 74.414)"/><path class="e" d="M211.207,523.284a301.671,301.671,0,0,1-49.671-14.948l22.916-89.258Zm0,0" transform="translate(30.919 80.214)"/><g transform="translate(148.81 406.172)"><path class="h" d="M191.454,403.439,140.424,431.8l-15.521-72.2,31.7-18.676" transform="translate(-124.903 -340.918)"/><path class="h" d="M180.762,403.439,231.788,431.8l15.521-72.2L215.6,340.918" transform="translate(-114.211 -340.918)"/><path class="h" d="M219.434,446.453h61v18.672h-61Zm0,0" transform="translate(-106.809 -320.718)"/></g><path class="i" d="M227.724,317.8v49.63a40.44,40.44,0,0,1-80.881,0V317.8Zm0,0" transform="translate(28.107 60.829)"/><path class="j" d="M223.828,356.816v3.146a40.436,40.436,0,0,1-28.482,38.628A40.423,40.423,0,0,1,167.2,365.226q4.049.251,8.144.251a139.89,139.89,0,0,0,48.485-8.661Zm0,0" transform="translate(32.003 68.297)"/><path class="j" d="M99.764,255.577a37.6,37.6,0,1,1-31.586-37.124,37.614,37.614,0,0,1,31.586,37.124Zm0,0" transform="translate(4.698 41.721)"/><path class="i" d="M93.556,255.5A37.614,37.614,0,0,1,61.97,292.624a140.62,140.62,0,0,1,0-74.249A37.61,37.61,0,0,1,93.556,255.5Zm0,0" transform="translate(10.906 41.798)"/><path class="i" d="M71.713,251.694a13.441,13.441,0,1,1-13.441-13.441A13.441,13.441,0,0,1,71.713,251.694Zm0,0" transform="translate(8.581 45.603)"/><path class="j" d="M273.895,255.577a37.595,37.595,0,1,0,31.582-37.124,37.614,37.614,0,0,0-31.582,37.124Zm0,0" transform="translate(52.425 41.721)"/><path class="i" d="M273.895,255.5a37.614,37.614,0,0,0,31.582,37.124,140.494,140.494,0,0,0,0-74.249A37.611,37.611,0,0,0,273.895,255.5Zm0,0" transform="translate(52.425 41.798)"/><path class="i" d="M343.188,210.519V263.8a139.919,139.919,0,0,1-117.47,138.105c-.223.037-.461.074-.684.116a138.025,138.025,0,0,1-21.776,1.689A139.914,139.914,0,0,1,63.347,263.8V210.518A139.83,139.83,0,0,1,203.258,70.593h.014A139.8,139.8,0,0,1,343.188,210.518Zm0,0" transform="translate(12.125 13.512)"/><path class="i" d="M321.061,251.694a13.441,13.441,0,1,1-13.441-13.441A13.441,13.441,0,0,1,321.061,251.694Zm0,0" transform="translate(56.308 45.603)"/><path class="j" d="M336.188,210.247V263.53a139.919,139.919,0,0,1-117.47,138.105c-.223.037-.461.074-.684.116A139.934,139.934,0,0,1,99.917,263.53V210.247A139.949,139.949,0,0,1,218.058,72.012,139.949,139.949,0,0,1,336.188,210.247Zm0,0" transform="translate(19.125 13.783)"/><path class="b" d="M160.877,228.472A15.872,15.872,0,1,1,145,212.6,15.87,15.87,0,0,1,160.877,228.472Zm0,0" transform="translate(24.717 40.693)"/><path class="b" d="M237.545,228.472A15.872,15.872,0,1,1,221.67,212.6,15.87,15.87,0,0,1,237.545,228.472Zm0,0" transform="translate(39.392 40.693)"/><path class="k" d="M155.244,224.662a6.8,6.8,0,1,1-6.8-6.8A6.8,6.8,0,0,1,155.244,224.662Zm0,0" transform="translate(27.112 41.7)"/><path class="k" d="M232.568,224.662a6.8,6.8,0,1,1-6.8-6.8A6.8,6.8,0,0,1,232.568,224.662Zm0,0" transform="translate(41.911 41.7)"/><path class="i" d="M200.309,256.442H168.564a6.848,6.848,0,0,1,0-13.7h31.744a6.848,6.848,0,1,1,0,13.7Zm0,0" transform="translate(30.954 46.463)"/><path class="i" d="M186.788,293.894a70.7,70.7,0,0,1-34.113-8.81,6.224,6.224,0,1,1,5.994-10.909,58.075,58.075,0,0,0,56.233,0,6.224,6.224,0,0,1,5.994,10.909A70.678,70.678,0,0,1,186.788,293.894Zm0,0" transform="translate(28.605 52.331)"/><path class="l" d="M343.188,165.551v54.577H317.145V177.391L129.163,142.459l-39.772-7.4v85.064H63.347V165.551A112.642,112.642,0,0,1,175.987,52.9h54.563c1.48,0,2.965.023,4.445.1A112.618,112.618,0,0,1,343.188,165.551Zm0,0" transform="translate(12.125 10.125)"/><path class="m" d="M332.614,165.535v54.577H306.571V177.374L118.59,142.442A112.657,112.657,0,0,1,224.42,52.984,112.618,112.618,0,0,1,332.615,165.535Zm0,0" transform="translate(22.699 10.142)"/></svg>