<svg xmlns="http://www.w3.org/2000/svg" width="100%" height="100%" viewBox="0 0 564 589.661">
    <defs>
        <style>
            .a {
                fill: #16224f;
            }

            .b {
                fill: #ffaf10;
            }

            .c {
                fill: #ef9614;
            }

            .d {
                fill: #ff9518;
            }

            .e {
                fill: #ef8318;
            }

            .f {
                fill: #d9eafc;
            }

            .g {
                fill: #c3ddf4;
            }

            .h {
                fill: #db722c;
            }

            .i {
                fill: #52bbef;
            }

            .j {
                fill: #fe3745;
            }

            .k {
                fill: #91e0e8;
            }

            .l {
                fill: #37c47a;
            }
        </style>
    </defs>
    <g transform="translate(-11)">
        <circle class="a" cx="282" cy="282" r="282" transform="translate(11 25.661)" />
        <path class="b"
            d="M107.224,474.561a5.772,5.772,0,0,1-5.755-5.755V71.247H63.39A5.772,5.772,0,0,0,57.635,77V462.071A283.64,283.64,0,0,0,111.83,518.4h318.14a5.772,5.772,0,0,0,5.755-5.755V474.562Z"
            transform="translate(7.043 10.76)" />
        <path class="c"
            d="M79.5,77a5.772,5.772,0,0,1,5.755-5.755H63.39A5.772,5.772,0,0,0,57.635,77V462.071A284.412,284.412,0,0,0,79.5,488.643Z"
            transform="translate(7.043 10.76)" />
        <path class="d"
            d="M139.885,438.45a5.772,5.772,0,0,1-5.755-5.755V36H98.638a5.772,5.772,0,0,0-5.755,5.755V477.391a5.771,5.771,0,0,0,5.755,5.755H465.22a5.771,5.771,0,0,0,5.755-5.755V438.45Z"
            transform="translate(12.366 5.436)" />
        <path class="e"
            d="M113.6,477.391V41.753A5.772,5.772,0,0,1,119.356,36H98.638a5.772,5.772,0,0,0-5.755,5.755V477.391a5.771,5.771,0,0,0,5.755,5.755h20.718A5.771,5.771,0,0,1,113.6,477.391Z"
            transform="translate(12.366 5.436)" />
        <path class="f"
            d="M503.973,441.393a5.772,5.772,0,0,1-5.755,5.755H131.638a5.772,5.772,0,0,1-5.755-5.755V5.755A5.772,5.772,0,0,1,131.638,0H498.217a5.772,5.772,0,0,1,5.755,5.755Z"
            transform="translate(17.35)" />
        <path class="g"
            d="M148.724,441.393V5.755A5.772,5.772,0,0,1,154.479,0H131.637a5.772,5.772,0,0,0-5.755,5.755V441.393a5.772,5.772,0,0,0,5.755,5.755h22.842A5.772,5.772,0,0,1,148.724,441.393Z"
            transform="translate(17.35)" />
        <g transform="translate(387.417 41.2)">
            <path class="h"
                d="M426.728,53.059H346.662a8.633,8.633,0,0,1,0-17.265h80.066a8.633,8.633,0,0,1,0,17.265Z"
                transform="translate(-338.029 -35.794)" />
            <path class="h"
                d="M426.728,78.558H346.662a8.633,8.633,0,0,1,0-17.265h80.066a8.633,8.633,0,0,1,0,17.265Z"
                transform="translate(-338.029 -31.943)" />
            <path class="h"
                d="M426.728,104.056H346.662a8.633,8.633,0,0,1,0-17.265h80.066a8.633,8.633,0,0,1,0,17.265Z"
                transform="translate(-338.029 -28.092)" />
            <path class="h"
                d="M426.728,129.555H346.662a8.633,8.633,0,0,1,0-17.265h80.066a8.633,8.633,0,0,1,0,17.265Z"
                transform="translate(-338.029 -24.242)" />
        </g>
        <g transform="translate(183.352 334.119)">
            <path class="i"
                d="M304.223,307.546H169.371a8.633,8.633,0,0,1,0-17.265H304.222a8.633,8.633,0,0,1,0,17.265Z"
                transform="translate(-160.738 -290.281)" />
            <path class="i"
                d="M304.223,333.044H169.371a8.633,8.633,0,1,1,0-17.265H304.222a8.633,8.633,0,0,1,0,17.265Z"
                transform="translate(-160.738 -286.43)" />
            <path class="i"
                d="M304.223,358.543H169.371a8.633,8.633,0,1,1,0-17.265H304.222a8.633,8.633,0,0,1,0,17.265Z"
                transform="translate(-160.738 -282.579)" />
        </g>
        <g transform="translate(176.482 180.466)">
            <path class="j"
                d="M432.341,174.053H309.491a8.633,8.633,0,1,1,0-17.265H432.341a8.633,8.633,0,0,1,0,17.265Z"
                transform="translate(-132.708 -156.788)" />
            <path class="j"
                d="M432.341,199.552H309.491a8.633,8.633,0,1,1,0-17.265H432.341a8.633,8.633,0,0,1,0,17.265Z"
                transform="translate(-132.708 -152.937)" />
            <path class="j"
                d="M432.341,225.05H309.491a8.633,8.633,0,1,1,0-17.265H432.341a8.633,8.633,0,0,1,0,17.265Z"
                transform="translate(-132.708 -149.086)" />
            <path class="j"
                d="M432.341,250.548H309.491a8.633,8.633,0,0,1,0-17.265H432.341a8.633,8.633,0,0,1,0,17.265Z"
                transform="translate(-132.708 -145.236)" />
            <path class="j"
                d="M154.77,224.587h33.658a33.658,33.658,0,0,1,33.657-33.659V157.272A67.316,67.316,0,0,0,154.77,224.587Z"
                transform="translate(-154.77 -156.715)" />
        </g>
        <path class="k"
            d="M228.084,142.442V176.1a33.656,33.656,0,0,1,33.657,33.657H295.4A67.315,67.315,0,0,0,228.084,142.442Z"
            transform="translate(32.784 21.512)" />
        <g transform="translate(176.482 48.677)">
            <path class="b"
                d="M255.742,215.755a33.656,33.656,0,1,1-67.313,0H154.77a67.316,67.316,0,0,0,134.631,0Z"
                transform="translate(-154.77 -16.093)" />
            <path class="b"
                d="M192.011,126.123V45.743a3.463,3.463,0,0,0-3.453-3.453H167.63a3.463,3.463,0,0,0-3.453,3.453v80.38Z"
                transform="translate(-153.349 -42.29)" />
        </g>
        <path class="j"
            d="M231.128,123.254V64.743a3.463,3.463,0,0,0-3.453-3.453H206.748a3.463,3.463,0,0,0-3.453,3.453v58.511Z"
            transform="translate(29.04 9.256)" />
        <path class="l"
            d="M270.244,119.781V87.743a3.463,3.463,0,0,0-3.453-3.453H245.864a3.463,3.463,0,0,0-3.453,3.453v32.037Z"
            transform="translate(34.948 12.73)" />
        <path class="k"
            d="M309.361,126.123V45.743a3.463,3.463,0,0,0-3.453-3.453H284.98a3.463,3.463,0,0,0-3.453,3.453v80.38Z"
            transform="translate(40.855 6.387)" />
        <path class="j"
            d="M385.415,325.984a3.457,3.457,0,0,1,3.453-3.453h15.609V283.9a5.772,5.772,0,0,0-5.755-5.755H346.787a5.772,5.772,0,0,0-5.755,5.755v51.935a5.772,5.772,0,0,0,5.755,5.755h38.628Z"
            transform="translate(49.842 42.006)" />
        <path class="l"
            d="M420.753,352.114A5.772,5.772,0,0,1,415,357.869H383.347a5.772,5.772,0,0,1-5.755-5.755V320.463a5.772,5.772,0,0,1,5.755-5.755H415a5.772,5.772,0,0,1,5.755,5.755Z"
            transform="translate(55.363 47.527)" />
        <path class="i"
            d="M334.947,129.555H160.141a8.633,8.633,0,1,1,0-17.265H334.947a8.633,8.633,0,1,1,0,17.265Z"
            transform="translate(21.22 16.958)" />
    </g>
</svg>